<?xml version="1.0" encoding="UTF-8"?>
<svg version="1.1" xmlns="http://www.w3.org/2000/svg" width="512" height="512">
<rect width="100" height="100" fill="none" stroke="none"/>
<path d="M0 0 C1.047354 0.49219686 1.047354 0.49219686 2.11586666 0.99433708 C4.71141958 2.22707315 7.27808909 3.50967576 9.8449707 4.80102539 C10.81959763 5.28738968 11.79422455 5.77375397 12.79838562 6.27485657 C16.00948345 7.87855761 19.21767116 9.48798783 22.42578125 11.09765625 C24.656689 12.21370625 26.88774475 13.32946044 29.11894226 14.44493103 C34.3854587 17.07907054 39.65004043 19.71704603 44.91383189 22.35662597 C49.71601302 24.76435039 54.5203569 27.16773099 59.32532436 29.56988913 C64.5247103 32.16927735 69.72292969 34.77098912 74.92055321 37.37389946 C77.13281303 38.48162487 79.34531858 39.58885968 81.55806923 40.69560432 C84.64039453 42.23784524 87.72139091 43.7827075 90.80200195 45.32836914 C91.72405426 45.7891687 92.64610657 46.24996826 93.59609985 46.72473145 C94.43021896 47.14392349 95.26433807 47.56311554 96.12373352 47.99501038 C96.8524532 48.36020814 97.58117289 48.7254059 98.33197498 49.10167027 C100 50 100 50 101 51 C101.09603022 52.6195634 101.12187855 54.24333083 101.12025452 55.86573792 C101.12231651 57.4454538 101.12231651 57.4454538 101.12442017 59.05708313 C101.12082489 60.22233017 101.11722961 61.38757721 101.11352539 62.58813477 C101.11367142 63.80747711 101.11381744 65.02681946 101.1139679 66.28311157 C101.11338893 69.63627511 101.10835968 72.98937774 101.10139394 76.34253049 C101.09515983 79.84325562 101.09455656 83.34398148 101.09336853 86.8447113 C101.09025538 93.47809656 101.08204222 100.11146541 101.07201904 106.74484342 C101.06085739 114.29490207 101.05534732 121.84496149 101.05032361 129.39502633 C101.03985959 144.93002706 101.02226047 160.46501142 101 176 C89.01581799 182.35953632 76.97550198 188.58340673 64.83203125 194.6328125 C63.28968065 195.4030509 61.74742086 196.17347113 60.20524597 196.94406128 C56.2197357 198.93494159 52.23302915 200.92341388 48.24603271 202.91131592 C43.42304813 205.31669949 38.60161792 207.7251971 33.77991486 210.13314819 C26.52110509 213.75776647 19.26038175 217.37852391 12 221 C11.67 241.46 11.34 261.92 11 283 C20.9 283 30.8 283 41 283 C41 292.9 41 302.8 41 313 C50.57 313 60.14 313 70 313 C70 303.1 70 293.2 70 283 C100.03 283 130.06 283 161 283 C161 313.03 161 343.06 161 374 C151.1 374 141.2 374 131 374 C131 398.75 131 423.5 131 449 C140.57 449 150.14 449 160 449 C160 439.1 160 429.2 160 419 C190.03 419 220.06 419 251 419 C251 449.03 251 479.06 251 510 C220.97 510 190.94 510 160 510 C160 500.1 160 490.2 160 480 C140.2 480 120.4 480 100 480 C100 445.02 100 410.04 100 374 C90.1 374 80.2 374 70 374 C70 364.1 70 354.2 70 344 C60.43 344 50.86 344 41 344 C41 353.9 41 363.8 41 374 C31.1 374 21.2 374 11 374 C11 388.85 11 403.7 11 419 C20.9 419 30.8 419 41 419 C41 449.03 41 479.06 41 510 C10.64 510 -19.72 510 -51 510 C-51 479.97 -51 449.94 -51 419 C-41.1 419 -31.2 419 -21 419 C-21 404.15 -21 389.3 -21 374 C-30.9 374 -40.8 374 -51 374 C-51 364.1 -51 354.2 -51 344 C-60.57 344 -70.14 344 -80 344 C-80 353.9 -80 363.8 -80 374 C-89.9 374 -99.8 374 -110 374 C-110 408.98 -110 443.96 -110 480 C-129.8 480 -149.6 480 -170 480 C-170 489.9 -170 499.8 -170 510 C-200.03 510 -230.06 510 -261 510 C-261 479.97 -261 449.94 -261 419 C-230.97 419 -200.94 419 -170 419 C-170 428.9 -170 438.8 -170 449 C-160.43 449 -150.86 449 -141 449 C-141 424.25 -141 399.5 -141 374 C-150.9 374 -160.8 374 -171 374 C-171 343.97 -171 313.94 -171 283 C-140.97 283 -110.94 283 -80 283 C-80 292.9 -80 302.8 -80 313 C-70.43 313 -60.86 313 -51 313 C-51 303.1 -51 293.2 -51 283 C-41.1 283 -31.2 283 -21 283 C-21 262.21 -21 241.42 -21 220 C-23.97 219.01 -23.97 219.01 -27 218 C-28.31794781 217.42012808 -29.62340321 216.81048548 -30.91049194 216.16500854 C-31.98085221 215.63189466 -31.98085221 215.63189466 -33.07283592 215.08801079 C-33.83818972 214.70173578 -34.60354351 214.31546078 -35.39208984 213.91748047 C-36.22543665 213.5009276 -37.05878345 213.08437473 -37.91738319 212.65519905 C-40.60045294 211.31292091 -43.28073432 209.96517875 -45.9609375 208.6171875 C-47.62262092 207.78487455 -49.2844853 206.95292277 -50.9465332 206.12133789 C-57.09154787 203.04359871 -63.23306441 199.95887918 -69.375 196.875 C-83.11125 189.98625 -96.8475 183.0975 -111 176 C-111 134.75 -111 93.5 -111 51 C-89.04709943 39.44584181 -89.04709943 39.44584181 -82.04370117 35.88574219 C-81.21175735 35.4616658 -80.37981354 35.03758942 -79.5226593 34.60066223 C-72.06118884 30.80127245 -64.58819969 27.02457995 -57.11135387 23.25555038 C-52.11911693 20.73875712 -47.13121736 18.21404988 -42.15209961 15.67138672 C-37.28251185 13.18489434 -32.40348939 10.71795532 -27.51708412 8.26468658 C-25.66802456 7.33219161 -23.82243326 6.39278548 -21.98048973 5.44631195 C-19.42069964 4.13257848 -16.84956057 2.84433867 -14.27416992 1.56152344 C-13.52142792 1.16796158 -12.76868591 0.77439972 -11.99313354 0.36891174 C-7.24163323 -1.95560111 -4.95951606 -2.43745209 0 0 Z " fill="#FE9000" transform="translate(261,2)"/>
<path d="M0 0 C0.698236 0.32813124 1.396472 0.65626247 2.11586666 0.99433708 C4.71141958 2.22707315 7.27808909 3.50967576 9.8449707 4.80102539 C10.81959763 5.28738968 11.79422455 5.77375397 12.79838562 6.27485657 C16.00948345 7.87855761 19.21767116 9.48798783 22.42578125 11.09765625 C24.656689 12.21370625 26.88774475 13.32946044 29.11894226 14.44493103 C34.3854587 17.07907054 39.65004043 19.71704603 44.91383189 22.35662597 C49.71601302 24.76435039 54.5203569 27.16773099 59.32532436 29.56988913 C64.5247103 32.16927735 69.72292969 34.77098912 74.92055321 37.37389946 C77.13281303 38.48162487 79.34531858 39.58885968 81.55806923 40.69560432 C84.64039453 42.23784524 87.72139091 43.7827075 90.80200195 45.32836914 C91.72405426 45.7891687 92.64610657 46.24996826 93.59609985 46.72473145 C94.43021896 47.14392349 95.26433807 47.56311554 96.12373352 47.99501038 C96.8524532 48.36020814 97.58117289 48.7254059 98.33197498 49.10167027 C100 50 100 50 101 51 C101.09603022 52.6195634 101.12187855 54.24333083 101.12025452 55.86573792 C101.12231651 57.4454538 101.12231651 57.4454538 101.12442017 59.05708313 C101.12082489 60.22233017 101.11722961 61.38757721 101.11352539 62.58813477 C101.11367142 63.80747711 101.11381744 65.02681946 101.1139679 66.28311157 C101.11338893 69.63627511 101.10835968 72.98937774 101.10139394 76.34253049 C101.09515983 79.84325562 101.09455656 83.34398148 101.09336853 86.8447113 C101.09025538 93.47809656 101.08204222 100.11146541 101.07201904 106.74484342 C101.06085739 114.29490207 101.05534732 121.84496149 101.05032361 129.39502633 C101.03985959 144.93002706 101.02226047 160.46501142 101 176 C89.12533091 182.2955626 77.20365125 188.47906025 65.18359375 194.4921875 C63.66526182 195.25296841 62.146957 196.01380343 60.62867737 196.77468872 C57.48939441 198.34728134 54.34932461 199.91828942 51.20874023 201.48828125 C47.20957087 203.48781465 43.2132076 205.49289071 39.21748257 207.49929619 C36.10027187 209.06348233 32.98123244 210.62399421 29.86168098 212.18350601 C28.38722294 212.92131931 26.91340243 213.66040826 25.44027519 214.40087509 C18.38247953 217.94676454 11.36528753 221.44362743 3.95570374 224.21243286 C1.7242889 225.05800267 1.7242889 225.05800267 -1.25 226.875 C-4.94540852 228.38675803 -6.32944799 227.42591139 -10 226 C-11.98966666 225.11659483 -13.96275746 224.19532322 -15.921875 223.24609375 C-16.51137436 222.9610498 -17.10087372 222.67600586 -17.70823669 222.38232422 C-19.72431756 221.40509493 -21.7372588 220.42158788 -23.75 219.4375 C-24.45734283 219.09316925 -25.16468567 218.7488385 -25.89346313 218.39407349 C-37.96517447 212.51548762 -49.98265207 206.5277238 -61.99609375 200.53125 C-62.66972521 200.19501114 -63.34335667 199.85877228 -64.0374012 199.51234436 C-79.70021637 191.6921186 -95.34801619 183.84186613 -111 176 C-111 134.75 -111 93.5 -111 51 C-89.04709943 39.44584181 -89.04709943 39.44584181 -82.04370117 35.88574219 C-81.21175735 35.4616658 -80.37981354 35.03758942 -79.5226593 34.60066223 C-72.06118884 30.80127245 -64.58819969 27.02457995 -57.11135387 23.25555038 C-52.11911693 20.73875712 -47.13121736 18.21404988 -42.15209961 15.67138672 C-37.28251185 13.18489434 -32.40348939 10.71795532 -27.51708412 8.26468658 C-25.66802456 7.33219161 -23.82243326 6.39278548 -21.98048973 5.44631195 C-19.42069964 4.13257848 -16.84956057 2.84433867 -14.27416992 1.56152344 C-13.14505692 0.97118065 -13.14505692 0.97118065 -11.99313354 0.36891174 C-7.24163323 -1.95560111 -4.95951606 -2.43745209 0 0 Z " fill="#FEBB00" transform="translate(261,2)"/>
<path d="M0 0 C30.03 0 60.06 0 91 0 C91 30.03 91 60.06 91 91 C81.1 91 71.2 91 61 91 C61 115.75 61 140.5 61 166 C70.57 166 80.14 166 90 166 C90 156.1 90 146.2 90 136 C120.03 136 150.06 136 181 136 C181 166.03 181 196.06 181 227 C150.97 227 120.94 227 90 227 C90 217.1 90 207.2 90 197 C70.2 197 50.4 197 30 197 C30 162.02 30 127.04 30 91 C20.1 91 10.2 91 0 91 C0 81.1 0 71.2 0 61 C-9.9 61 -19.8 61 -30 61 C-30 50.77 -30 40.54 -30 30 C-20.1 30 -10.2 30 0 30 C0 20.1 0 10.2 0 0 Z " fill="#59ABFF" transform="translate(331,285)"/>
<path d="M0 0 C0.33 75.9 0.66 151.8 1 230 C-3.26539657 228.57820114 -6.92593484 227.18220226 -10.921875 225.24609375 C-11.51137436 224.9610498 -12.10087372 224.67600586 -12.70823669 224.38232422 C-14.72431756 223.40509493 -16.7372588 222.42158788 -18.75 221.4375 C-19.45734283 221.09316925 -20.16468567 220.7488385 -20.89346313 220.39407349 C-32.96517447 214.51548762 -44.98265207 208.5277238 -56.99609375 202.53125 C-57.66972521 202.19501114 -58.34335667 201.85877228 -59.0374012 201.51234436 C-74.70021637 193.6921186 -90.34801619 185.84186613 -106 178 C-106 136.75 -106 95.5 -106 53 C-84.16437954 41.50756818 -84.16437954 41.50756818 -76.96435547 37.91748047 C-76.12438019 37.49661667 -75.28440491 37.07575287 -74.41897583 36.64213562 C-71.73602517 35.29851942 -69.05168009 33.95771994 -66.3671875 32.6171875 C-64.46853928 31.66752548 -62.56995037 30.71774486 -60.67141724 29.76785278 C-56.7410636 27.80194732 -52.81000722 25.83745659 -48.87841797 23.87402344 C-43.82979141 21.35259474 -38.78300864 18.8274994 -33.73672295 16.30138969 C-29.83944201 14.35095036 -25.94121839 12.40240145 -22.04269791 10.45444107 C-20.17877956 9.52281577 -18.31515889 8.59059465 -16.45183945 7.65777206 C-13.8710332 6.36610831 -11.28897191 5.07698992 -8.70654297 3.78857422 C-7.93582458 3.40220291 -7.1651062 3.0158316 -6.37103271 2.61775208 C-1.1142778 0 -1.1142778 0 0 0 Z " fill="#FED300" transform="translate(256,0)"/>
<path d="M0 0 C10.23 0 20.46 0 31 0 C31 34.98 31 69.96 31 106 C11.2 106 -8.6 106 -29 106 C-29 115.9 -29 125.8 -29 136 C-59.03 136 -89.06 136 -120 136 C-120 105.97 -120 75.94 -120 45 C-89.97 45 -59.94 45 -29 45 C-29 54.9 -29 64.8 -29 75 C-19.43 75 -9.86 75 0 75 C0 50.25 0 25.5 0 0 Z " fill="#65CBFF" transform="translate(120,376)"/>
<path d="M0 0 C30.36 0 60.72 0 92 0 C92 30.03 92 60.06 92 91 C61.64 91 31.28 91 0 91 C0 60.97 0 30.94 0 0 Z " fill="#FEBB00" transform="translate(210,421)"/>
<path d="M0 0 C30.03 0 60.06 0 91 0 C91 30.03 91 60.06 91 91 C60.97 91 30.94 91 0 91 C0 60.97 0 30.94 0 0 Z " fill="#4D5086" transform="translate(90,285)"/>
<path d="M0 0 C30.03 0 60.06 0 91 0 C91 30.03 91 60.06 91 91 C60.97 91 30.94 91 0 91 C0 60.97 0 30.94 0 0 Z " fill="#59C369" transform="translate(421,421)"/>
<path d="M0 0 C21.82758899 10.33938426 21.82758899 10.33938426 29.05151367 13.96899414 C29.89309525 14.38971191 30.73467682 14.81042969 31.60176086 15.24389648 C34.29145336 16.5890818 36.9797314 17.9370657 39.66796875 19.28515625 C41.56886591 20.23654068 43.46985343 21.18774461 45.3709259 22.13877869 C50.30516643 24.60778197 55.23819971 27.07918742 60.17095947 29.55114746 C65.23236668 32.08702277 70.29494787 34.62055214 75.35742188 37.15429688 C85.23941206 42.10060828 95.12012465 47.04946588 105 52 C105 52.66 105 53.32 105 54 C104.09161377 54.46672119 103.18322754 54.93344238 102.24731445 55.41430664 C86.53171298 63.48956831 70.81745412 71.56732622 55.125 79.6875 C53.96661621 80.28691406 52.80823242 80.88632813 51.61474609 81.50390625 C46.12735093 84.3441887 40.6407578 87.18601316 35.15484619 90.02915955 C32.54379709 91.38217419 29.93241306 92.73454161 27.32098389 94.08682251 C25.51003901 95.02492353 23.69958916 95.96397997 21.88916016 96.90307617 C20.76944824 97.4829126 19.64973633 98.06274902 18.49609375 98.66015625 C17.52857178 99.16168213 16.5610498 99.66320801 15.56420898 100.17993164 C10.3932856 102.82047098 5.19314138 105.40342931 0 108 C0 72.36 0 36.72 0 0 Z " fill="#FFA000" transform="translate(256,0)"/>
<path d="M0 0 C0 35.64 0 71.28 0 108 C-18.42780854 98.78609573 -18.42780854 98.78609573 -25.58203125 95.1171875 C-26.3965123 94.70021606 -27.21099335 94.28324463 -28.05015564 93.8536377 C-30.63807002 92.5283328 -33.22534172 91.20178022 -35.8125 89.875 C-36.70674683 89.41667786 -37.60099365 88.95835571 -38.52233887 88.48614502 C-60.73834511 77.09926748 -82.89959191 65.60982193 -105 54 C-105 53.34 -105 52.68 -105 52 C-91.45856692 45.21761911 -77.91599832 38.43750964 -64.37206364 31.66012573 C-58.08384319 28.513434 -51.79600069 25.36599134 -45.5090332 22.21679688 C-39.4475294 19.18054166 -33.38499234 16.14635815 -27.32180595 13.11346436 C-25.00288645 11.95307714 -22.68432045 10.7919832 -20.36610603 9.63018799 C-17.13178967 8.00942709 -13.89625206 6.39113045 -10.66040039 4.7734375 C-9.20707809 4.0440799 -9.20707809 4.0440799 -7.72439575 3.29998779 C-6.84794907 2.86245178 -5.97150238 2.42491577 -5.0684967 1.97412109 C-3.91948175 1.39892227 -3.91948175 1.39892227 -2.74725437 0.81210327 C-1 0 -1 0 0 0 Z " fill="#FFBB00" transform="translate(256,0)"/>
<path d="M0 0 C10.23 0 20.46 0 31 0 C31 24.75 31 49.5 31 75 C40.9 75 50.8 75 61 75 C61.020625 79.929375 61.04125 84.85875 61.0625 89.9375 C61.071604 91.49460693 61.08070801 93.05171387 61.09008789 94.65600586 C61.09258545 95.87167236 61.09508301 97.08733887 61.09765625 98.33984375 C61.10289307 99.59144287 61.10812988 100.84304199 61.11352539 102.13256836 C61 105 61 105 60 106 C58.1281906 106.09386381 56.2528194 106.11743804 54.37866211 106.11352539 C53.1606189 106.11340454 51.94257568 106.11328369 50.68762207 106.11315918 C48.7520343 106.10548523 48.7520343 106.10548523 46.77734375 106.09765625 C45.59885864 106.09664917 44.42037354 106.09564209 43.20617676 106.09460449 C38.78327468 106.08935316 34.36038641 106.07539205 29.9375 106.0625 C20.058125 106.041875 10.17875 106.02125 0 106 C0 71.02 0 36.04 0 0 Z " fill="#A2DAFE" transform="translate(361,376)"/>
<path d="M0 0 C10.23 0 20.46 0 31 0 C31 34.98 31 69.96 31 106 C21.120625 106.020625 11.24125 106.04125 1.0625 106.0625 C-3.62247681 106.07615601 -3.62247681 106.07615601 -8.40209961 106.09008789 C-10.86051388 106.09300678 -13.31892864 106.0955554 -15.77734375 106.09765625 C-17.0677356 106.10277222 -18.35812744 106.10788818 -19.68762207 106.11315918 C-21.51468689 106.11334045 -21.51468689 106.11334045 -23.37866211 106.11352539 C-24.97417152 106.11685631 -24.97417152 106.11685631 -26.60191345 106.12025452 C-29 106 -29 106 -30 105 C-30.08783542 102.78144736 -30.10694609 100.56011504 -30.09765625 98.33984375 C-30.09515869 97.12417725 -30.09266113 95.90851074 -30.09008789 94.65600586 C-30.08098389 93.09889893 -30.07187988 91.54179199 -30.0625 89.9375 C-30.041875 85.008125 -30.02125 80.07875 -30 75 C-20.1 75 -10.2 75 0 75 C0 50.25 0 25.5 0 0 Z " fill="#CCE7FF" transform="translate(120,376)"/>
<path d="M0 0 C15.18 0 30.36 0 46 0 C46 30.03 46 60.06 46 91 C30.82 91 15.64 91 0 91 C0 60.97 0 30.94 0 0 Z " fill="#FFD300" transform="translate(210,421)"/>
<path d="M0 0 C0 30.03 0 60.06 0 91 C-15.18 91 -30.36 91 -46 91 C-46 61.3 -46 31.6 -46 1 C-30.69701284 -0.02019914 -15.33695609 0 0 0 Z " fill="#FE4A4A" transform="translate(302,285)"/>
<path d="M0 0 C3.83690986 0.68879899 6.5550922 1.73713848 9.9375 3.6875 C13.81728358 5.72594725 13.81728358 5.72594725 18.125 5.5625 C19.548125 4.7890625 19.548125 4.7890625 21 4 C22.39300411 3.28611881 23.78900138 2.57805648 25.1875 1.875 C25.84105469 1.52179688 26.49460937 1.16859375 27.16796875 0.8046875 C29 0 29 0 32 0 C32.02312737 8.06652174 32.04091709 16.13302972 32.05181217 24.19957638 C32.05704014 27.94483037 32.06413622 31.69006176 32.07543945 35.43530273 C32.08627141 39.04681687 32.09227749 42.65830921 32.09487724 46.26983833 C32.09673094 47.65060329 32.10035049 49.031367 32.10573006 50.41212273 C32.11294447 52.33975952 32.11340809 54.26741807 32.11352539 56.19506836 C32.115746 57.29427109 32.11796661 58.39347382 32.12025452 59.52598572 C32 62 32 62 31 63 C28.79349344 63.10012401 26.58377614 63.1308118 24.375 63.1328125 C23.71290527 63.13376923 23.05081055 63.13472595 22.36865234 63.13571167 C20.96647039 63.13639326 19.5642853 63.13454042 18.16210938 63.13037109 C16.00904287 63.12502246 13.85618498 63.1303167 11.703125 63.13671875 C10.34374954 63.13605796 8.9843742 63.13477679 7.625 63.1328125 C6.37976563 63.13168457 5.13453125 63.13055664 3.8515625 63.12939453 C1 63 1 63 0 62 C-0.09396057 60.06693502 -0.11743517 58.13041162 -0.11352539 56.19506836 C-0.11344986 54.95385727 -0.11337433 53.71264618 -0.11329651 52.43382263 C-0.10818911 51.0691626 -0.1029731 49.70450298 -0.09765625 48.33984375 C-0.095792 46.95121817 -0.09436813 45.56259193 -0.09336853 44.17396545 C-0.08954387 40.51278885 -0.07971403 36.8516517 -0.06866455 33.19049072 C-0.05844932 29.45707737 -0.05387067 25.72365766 -0.04882812 21.99023438 C-0.03809171 14.66013823 -0.02101591 7.33007464 0 0 Z " fill="#CDE6FB" transform="translate(240,223)"/>
<path d="M0 0 C10.56 0 21.12 0 32 0 C32 14.85 32 29.7 32 45 C21.44 45 10.88 45 0 45 C0 30.15 0 15.3 0 0 Z " fill="#A3DBFF" transform="translate(240,376)"/>
<path d="M0 0 C0 20.46 0 40.92 0 62 C-5.28 62 -10.56 62 -16 62 C-16 43.85 -16 25.7 -16 7 C-3 0 -3 0 0 0 Z " fill="#A3DBFE" transform="translate(272,223)"/>
<path d="M0 0 C9.9 0 19.8 0 30 0 C30 10.23 30 20.46 30 31 C20.1 31 10.2 31 0 31 C0 20.77 0 10.54 0 0 Z " fill="#A3DAFD" transform="translate(301,315)"/>
<path d="M0 0 C9.9 0 19.8 0 30 0 C30 10.23 30 20.46 30 31 C20.1 31 10.2 31 0 31 C0 20.77 0 10.54 0 0 Z " fill="#CDE7FD" transform="translate(181,315)"/>
<path d="M0 0 C5.28 0 10.56 0 16 0 C16 14.85 16 29.7 16 45 C10.72 45 5.44 45 0 45 C0 30.15 0 15.3 0 0 Z " fill="#CCE8FF" transform="translate(240,376)"/>
</svg>
