<svg xmlns="http://www.w3.org/2000/svg" version="1.1" xmlns:xlink="http://www.w3.org/1999/xlink" width="1500" height="816" viewBox="0 0 1500 816"><svg xml:space="preserve" width="1500" height="816" data-version="2" data-id="lg_crF7Jj914In2WZmz3K" viewBox="0 0 816 816" x="0" y="0"><rect width="100%" height="100%" fill="transparent"></rect><circle r="50" fill="#fff" transform="translate(408 408)scale(8.0171)"></circle><path d="m271.29 224.523-44.308 44.309-11.094-11.163 44.308-44.308zm-16.641-16.847-44.309 44.309-11.162-11.094 44.308-44.309zM283 236.096l-44.309 44.31-6.095-6.096 44.309-44.308zm-45.13-45.06-11.163-11.164-44.309 44.309 11.163 11.163zm-66.223 22.462 44.377-44.309 5.067 5.068-44.308 44.308zm369.465 13.422 41.09 41.09-10.272 10.41-41.227-41.09zm15.546-15.545 41.158 41.158-10.34 10.34-41.159-41.089zm-31.091 31.022 41.158 41.159-5.616 5.684-41.158-41.159zm-53.76 159.771c27.736-31.023 55.266-61.771 80.81-90.534l18.148 18.148 10.273-10.273-22.6-22.462-46.294-46.363-22.462-22.463-10.273 10.273 18.08 18.08c-30.27 26.913-62.868 56.155-95.603 85.398l-.547.479c-35.886 32.187-71.77 64.237-104.506 93.274l-.821.685-.274 1.027c-7.67 27.599-77.112 136.418-98.068 169.084l-9.177 14.176 14.245-9.108c32.666-21.093 141.486-90.466 169.016-98.136l1.027-.342.685-.754c29.105-32.872 61.36-68.894 93.616-104.916z"></path><path d="m217.189 313.072 11.094 11.026 19.518-19.518c26.708 30.132 55.47 62.182 84.508 94.643l68.688-61.429.616-.548 4.246-3.835c-33.762-30.27-67.387-60.333-98.752-88.137l19.518-19.518-11.026-11.094-24.243 24.311L241.5 288.83zM630.14 622.204c-22.6-35.2-97.246-152.443-105.669-182.165l-.342-1.027-.822-.753-43.83-39.036-2.602 2.877-5.067 5.684-65.95 73.756 34.927 39.24.685.823 1.164.342c29.584 8.355 146.827 83.001 182.096 105.67l15.272 9.86zm-16.778-385.217-41.158-41.158-10.341 10.41 41.158 41.158zM582.066 185.9l41.158 41.158-4.793 4.794-41.09-41.227zm-245.01-76.435v97.925h62.484v13.102c0 2.748-2.003 8.29-9.75 8.29l-21.205.031c-2.267 0-4.61 2.406-4.61 6.38 0 3.959 3.042 5.558 4.579 5.558h19.808s.264-6.148 7.607-7.11l.466-.062q.73-.078 1.537-.078h18.504q.823 0 1.522.078l.496.062c7.328.962 7.592 7.11 7.592 7.11h19.808c1.553 0 4.58-1.599 4.58-5.558 0-3.974-2.329-6.38-4.61-6.38l-21.207-.031c-7.746 0-9.749-5.542-9.749-8.29V207.39h62.484v-97.925zm128.43 85.987H348.962v-74.065h116.524z"></path><path d="M354.023 126.68h2.05v11.442h-2.05zm17.589 0h2.05v11.442h-2.05zm4.098 0h2.05v11.442h-2.05zm4.099 0h2.049v11.442h-2.05zm35.177 0h2.05v11.442h-2.05zm17.589 0h2.049v11.442h-2.05zm4.098 0h2.05v11.442h-2.05zm4.098 0h2.05v11.442h-2.05zm4.099 0h2.049v11.442h-2.05zm-33.982 0h2.049v11.442h-2.05zm-47.038 2.05a3.68 3.68 0 1 1 0 7.358 3.68 3.68 0 0 1 0-7.358m0-2.05a5.72 5.72 0 1 0 0 11.442 5.72 5.72 0 0 0 0-11.441m25.785 2.049a3.68 3.68 0 1 1 0 7.358 3.68 3.68 0 0 1 0-7.358m0-2.05a5.72 5.72 0 1 0 0 11.442 5.72 5.72 0 0 0 0-11.441m35.178 2.049a3.68 3.68 0 1 1 0 7.358 3.68 3.68 0 0 1 0-7.358m0-2.05a5.728 5.728 0 1 0 0 11.457 5.728 5.728 0 0 0 0-11.456m29.883 2.049a3.68 3.68 0 1 1 0 7.358 3.68 3.68 0 0 1 0-7.358m0-2.05a5.728 5.728 0 1 0 0 11.457 5.728 5.728 0 0 0 0-11.456m-51.57 2.049a3.68 3.68 0 1 1 0 7.358 3.68 3.68 0 0 1 0-7.358m0-2.05a5.72 5.72 0 1 0 0 11.442 5.72 5.72 0 0 0 0-11.441m-49.103 35.193h2.05v11.44h-2.05zm17.589 0h2.05v11.44h-2.05zm4.098 0h2.05v11.44h-2.05zm4.099 0h2.049v11.44h-2.05zm35.177 0h2.05v11.44h-2.05zm17.589 0h2.049v11.44h-2.05zm4.098 0h2.05v11.44h-2.05zm4.098 0h2.05v11.44h-2.05zm4.099 0h2.049v11.44h-2.05zm-33.982 0h2.049v11.44h-2.05zm-47.038 2.049a3.68 3.68 0 1 1 .478 7.343 3.68 3.68 0 0 1-.478-7.343m0-2.05a5.713 5.713 0 1 0 0 11.426 5.72 5.72 0 1 0 0-11.441m25.785 2.065a3.68 3.68 0 1 1 .478 7.343 3.68 3.68 0 0 1-.478-7.343m0-2.05a5.713 5.713 0 1 0 0 11.426 5.72 5.72 0 1 0 0-11.441m35.178 2.065a3.68 3.68 0 1 1 .478 7.343 3.68 3.68 0 0 1-.478-7.343m0-2.05a5.728 5.728 0 1 0-.596 11.442 5.728 5.728 0 0 0 .596-11.441m29.883 2.049a3.68 3.68 0 1 1 .479 7.343 3.68 3.68 0 0 1-.479-7.343m0-2.05a5.728 5.728 0 1 0-.596 11.442 5.728 5.728 0 0 0 .596-11.441m-51.57 2.049a3.68 3.68 0 1 1 .478 7.343 3.68 3.68 0 0 1-.478-7.343m0-2.05a5.713 5.713 0 1 0 0 11.426 5.72 5.72 0 1 0 0-11.441m-48.497-17.573h2.049v11.441h-2.05zm17.588 0h2.05v11.441h-2.05zm4.099 0h2.049v11.441h-2.05zm33.982 0h2.049v11.441h-2.05zm17.588 0h2.05v11.441h-2.05zm4.099 0h2.049v11.441h-2.05zm4.098 0h2.05v11.441h-2.05zm-55.669 0h2.05v11.441h-2.05zm4.098 0h2.05v11.441h-2.05zm4.099 0h2.049v11.441h-2.05zm51.57 0h2.05v11.441h-2.05zm17.59 0h2.048v11.441h-2.049zm-51.572 0h2.05v11.441h-2.05zm-41.76 2.049a3.68 3.68 0 1 1 0 7.343 3.68 3.68 0 0 1 0-7.358m0-2.034a5.713 5.713 0 1 0 0 11.426 5.713 5.713 0 0 0 0-11.426m33.983 2.049a3.68 3.68 0 1 1 0 7.343 3.68 3.68 0 1 1 0-7.358m0-2.034a5.713 5.713 0 1 0 0 11.426 5.713 5.713 0 0 0 0-11.426m21.687 2.049a3.68 3.68 0 1 1 0 7.343 3.68 3.68 0 1 1 0-7.358m0-2.034a5.728 5.728 0 1 0-.596 11.441 5.728 5.728 0 0 0 .596-11.441m29.884 2.049a3.68 3.68 0 1 1 0 7.343 3.68 3.68 0 1 1 0-7.358m0-2.034a5.72 5.72 0 1 0 0 11.441 5.72 5.72 0 0 0 0-11.441m-95.364 35.177h2.049v11.441h-2.05zm17.588 0h2.05v11.441h-2.05zm4.099 0h2.049v11.441h-2.05zm33.982 0h2.049v11.441h-2.05zm17.588 0h2.05v11.441h-2.05zm4.099 0h2.049v11.441h-2.05zm4.098 0h2.05v11.441h-2.05zm-55.669 0h2.05v11.441h-2.05zm4.098 0h2.05v11.441h-2.05zm4.099 0h2.049v11.441h-2.05zm51.57 0h2.05v11.441h-2.05zm17.59 0h2.048v11.441h-2.049zm-51.572 0h2.05v11.441h-2.05zm-41.76 2.05a3.68 3.68 0 1 1 .479 7.342 3.68 3.68 0 0 1-.478-7.343m0-2.049a5.713 5.713 0 1 0 0 11.426 5.713 5.713 0 0 0 0-11.426m33.982 2.05a3.68 3.68 0 1 1 .478 7.342 3.68 3.68 0 0 1-.478-7.343m0-2.049a5.713 5.713 0 1 0 0 11.426 5.713 5.713 0 0 0 0-11.426m21.687 2.05a3.68 3.68 0 1 1 .478 7.342 3.68 3.68 0 0 1-.478-7.343m0-2.049a5.72 5.72 0 1 0 0 11.441 5.72 5.72 0 0 0 0-11.44m29.884 2.048a3.68 3.68 0 1 1 .478 7.343 3.68 3.68 0 0 1-.478-7.343m0-2.049a5.713 5.713 0 1 0 0 11.426 5.713 5.713 0 0 0 0-11.426"></path></svg></svg>